<svg version="1.0" xmlns="http://www.w3.org/2000/svg"
 width="2000.000000pt" height="2000.000000pt" viewBox="0 0 2000.000000 2000.000000"
 preserveAspectRatio="xMidYMid meet">
    <rect width="100%" height="100%" fill="#80c6f1"/>
<g transform="translate(0.000000,2000.000000) scale(0.100000,-0.100000)"
fill="#000000" stroke="none">
<path d="M10224 19503 c-3 -10 -13 -36 -21 -58 -13 -34 -17 -134 -26 -625 -5
-322 -11 -875 -12 -1230 -2 -355 -8 -854 -13 -1110 -10 -461 -12 -496 -46
-549 -17 -27 -83 -45 -191 -51 -128 -8 -176 -28 -228 -94 -46 -57 -64 -106
-82 -218 -18 -117 -19 -178 -3 -360 10 -122 9 -142 -6 -181 -9 -24 -27 -54
-39 -65 -33 -31 -129 -42 -288 -33 -160 9 -1336 6 -1366 -3 -47 -15 -70 -143
-39 -218 17 -39 45 -55 131 -74 66 -14 123 -28 203 -50 28 -8 76 -20 105 -28
28 -8 72 -20 97 -26 25 -6 70 -18 100 -25 30 -8 76 -19 103 -25 26 -5 66 -14
90 -19 23 -6 69 -17 102 -26 33 -9 80 -21 105 -27 25 -5 68 -16 95 -23 94 -25
140 -36 210 -50 295 -59 357 -91 390 -207 16 -56 16 -76 6 -188 -6 -69 -16
-363 -21 -655 -9 -551 -12 -593 -55 -658 -20 -31 -97 -53 -219 -62 -159 -11
-223 -63 -308 -250 -23 -49 -23 -55 -20 -366 3 -306 3 -317 -18 -357 -47 -90
-57 -92 -610 -93 -250 0 -466 -4 -479 -8 -13 -3 -32 -22 -42 -41 -18 -33 -19
-62 -15 -525 2 -276 9 -549 16 -625 11 -120 10 -143 -4 -199 -19 -74 -26 -84
-81 -119 -38 -24 -50 -26 -225 -33 -552 -21 -718 -30 -743 -41 -36 -14 -48
-37 -57 -113 -11 -88 5 -791 19 -837 9 -28 19 -39 44 -47 39 -13 -8 -13 532
-3 l450 8 110 53 c61 29 117 57 125 62 18 11 20 12 95 34 33 9 78 23 100 30
22 8 63 17 90 20 28 3 86 12 130 20 213 38 342 51 700 75 88 6 198 15 245 21
129 17 1151 24 1345 9 88 -6 223 -15 300 -20 77 -4 169 -13 205 -19 36 -6 97
-15 135 -20 39 -6 99 -14 135 -20 36 -5 126 -17 200 -26 237 -29 320 -48 448
-101 18 -8 40 -14 48 -14 14 0 71 -21 149 -54 119 -52 216 -81 311 -95 66 -10
97 -9 175 4 71 11 177 15 435 15 373 0 393 3 430 57 16 25 20 56 26 258 3 127
10 275 13 330 10 138 -14 303 -49 350 -24 31 -29 33 -108 40 -46 3 -108 11
-139 16 -31 5 -209 11 -395 12 -310 3 -342 5 -379 23 -62 29 -80 53 -100 127
-17 62 -17 92 -9 330 4 144 8 336 7 427 -1 91 -2 251 -2 355 -2 207 -10 260
-42 270 -11 4 -226 5 -477 3 -453 -3 -457 -3 -498 19 -73 39 -69 14 -69 444
l0 387 -35 43 c-19 24 -45 52 -57 62 -13 10 -30 25 -38 33 -8 8 -40 27 -72 42
-51 23 -75 27 -190 32 -146 7 -160 12 -191 80 -14 29 -16 64 -12 220 6 279 5
405 -4 887 l-9 442 27 40 c44 62 74 77 236 116 30 7 68 18 83 24 16 6 39 11
52 11 14 0 39 6 57 14 18 7 53 19 78 25 25 7 68 19 95 27 28 9 84 24 125 34
41 9 116 29 165 44 50 14 115 33 145 42 30 9 69 20 85 26 17 5 55 16 85 23
195 48 258 65 315 87 87 34 115 68 115 138 0 50 -22 96 -51 105 -12 4 -335 6
-718 4 -649 -4 -699 -3 -747 14 -65 22 -97 51 -119 102 -15 35 -16 66 -10 255
10 291 -3 371 -75 465 -38 50 -128 93 -214 100 -148 14 -205 51 -237 157 -21
67 -21 77 -16 1555 5 1619 2 1836 -28 1896 -21 41 -61 52 -71 20z"/>
<path d="M15120 9265 c-14 -8 -34 -15 -45 -15 -11 0 -29 -7 -39 -15 -11 -8
-28 -15 -38 -15 -10 0 -35 -9 -55 -20 -21 -11 -45 -20 -53 -20 -9 0 -20 -4
-25 -8 -12 -9 -108 -47 -145 -57 -14 -3 -38 -13 -55 -20 -16 -8 -61 -28 -100
-46 -72 -32 -157 -73 -187 -89 -145 -79 -244 -123 -363 -160 -38 -12 -115 -44
-170 -70 -145 -69 -173 -80 -199 -80 -29 0 -97 -28 -276 -113 -52 -25 -124
-57 -160 -72 -36 -14 -74 -30 -85 -35 -51 -22 -128 -40 -170 -40 -67 0 -116
30 -179 109 -31 38 -66 73 -78 76 -13 4 -36 13 -53 20 -16 6 -57 22 -90 34
-68 25 -116 46 -160 68 -172 89 -220 109 -304 129 -53 13 -113 24 -133 24 -21
0 -70 7 -110 15 -82 16 -168 30 -278 46 -41 6 -108 17 -148 25 -40 8 -98 14
-130 14 -31 0 -106 6 -167 15 -60 8 -198 19 -305 25 -423 22 -558 30 -628 40
-97 13 -599 13 -787 -1 -315 -22 -497 -42 -592 -64 -34 -8 -85 -15 -115 -15
-29 -1 -73 -5 -98 -10 -25 -5 -90 -12 -145 -15 -90 -6 -186 -26 -270 -56 -16
-6 -50 -15 -75 -19 -99 -19 -319 -116 -395 -173 -120 -92 -198 -187 -235 -284
-11 -29 -24 -61 -29 -70 -34 -67 -99 -294 -111 -393 -4 -30 -12 -82 -18 -115
-30 -152 -63 -556 -53 -625 11 -69 15 -73 80 -67 86 8 187 26 213 37 13 5 55
14 93 19 39 5 106 15 150 21 221 30 313 40 450 50 160 11 278 20 550 45 402
36 1235 60 1465 42 139 -11 155 -11 440 -8 248 2 628 -11 990 -34 395 -26 608
-54 775 -100 50 -14 104 -27 200 -47 28 -6 67 -17 88 -24 20 -8 48 -14 61 -14
13 0 46 -6 72 -14 27 -8 81 -19 119 -25 118 -18 177 -31 250 -58 164 -59 232
-56 374 17 117 59 164 80 184 80 9 0 28 6 44 14 26 13 88 41 158 71 17 7 46
19 65 28 19 8 56 22 83 32 26 9 74 34 106 56 32 21 61 39 64 39 4 0 29 14 57
30 28 17 57 30 65 30 7 0 26 7 42 15 15 8 51 24 78 35 28 12 64 27 80 35 17 7
55 23 85 36 30 12 87 36 125 54 39 18 102 47 140 64 39 18 115 54 170 80 55
27 136 65 180 85 44 21 87 41 95 46 18 11 89 45 150 71 25 11 52 24 60 30 8 5
24 14 35 20 31 15 65 75 65 112 0 39 -36 145 -57 169 -30 33 -76 40 -143 23
-34 -9 -69 -20 -78 -25 -18 -9 -95 -44 -149 -66 -93 -39 -129 -55 -246 -108
-42 -20 -82 -36 -88 -36 -6 0 -70 -25 -142 -56 -73 -30 -148 -62 -167 -70 -19
-8 -48 -21 -63 -29 -16 -8 -35 -15 -42 -15 -7 0 -26 -7 -42 -15 -15 -8 -50
-24 -78 -35 -27 -11 -63 -27 -78 -35 -16 -8 -35 -15 -44 -15 -13 0 -100 -34
-228 -90 -22 -10 -58 -25 -80 -34 -57 -25 -91 -40 -167 -75 -37 -17 -71 -31
-75 -31 -5 -1 -26 -9 -48 -20 -22 -11 -48 -19 -57 -20 -10 0 -32 -7 -50 -15
-18 -8 -76 -31 -128 -50 -52 -20 -107 -43 -122 -51 -14 -7 -42 -14 -62 -14
-29 0 -38 5 -45 23 -15 40 25 89 89 107 20 5 65 24 100 41 36 17 126 60 200
96 74 36 167 81 205 99 39 19 76 34 83 34 6 0 60 23 119 51 60 28 126 59 148
69 22 10 102 48 177 84 75 36 140 66 144 66 4 0 42 16 83 36 42 20 103 48 136
63 33 16 98 46 145 68 180 86 507 233 516 233 13 0 99 73 109 93 28 56 -43
197 -115 227 -26 11 -38 9 -93 -11 -34 -12 -82 -34 -107 -47 -53 -28 -111 -50
-160 -62 -67 -16 -124 -38 -241 -95 -42 -20 -91 -40 -110 -45 -61 -16 -122
-40 -244 -99 -162 -79 -211 -101 -220 -101 -5 0 -29 -10 -54 -21 -54 -25 -163
-75 -206 -94 -16 -8 -64 -30 -106 -49 -42 -20 -83 -36 -91 -36 -8 0 -18 -4
-23 -9 -11 -11 -81 -37 -140 -53 -22 -6 -44 -14 -50 -18 -5 -5 -26 -13 -45
-18 -59 -17 -173 -64 -220 -91 -57 -32 -82 -41 -114 -41 -29 0 -39 5 -48 26
-10 21 -9 31 3 52 16 30 82 78 119 87 14 3 54 20 90 37 36 16 83 38 105 48 89
41 203 93 260 120 130 61 152 70 158 70 3 0 45 18 94 41 99 46 152 70 221 100
26 11 93 43 148 70 56 27 104 49 108 49 14 0 396 184 496 239 34 19 66 34 175
81 186 81 200 93 199 162 -1 29 -8 67 -17 83 -10 17 -17 35 -17 41 0 7 -19 30
-41 53 -34 33 -48 41 -78 41 -20 -1 -47 -7 -61 -15z"/>
<path d="M3580 7779 c-70 -15 -160 -156 -160 -251 0 -35 6 -46 42 -80 23 -21
49 -38 59 -38 9 0 30 -6 46 -14 15 -8 55 -22 88 -32 33 -9 74 -23 90 -30 153
-65 225 -94 231 -94 4 0 26 -9 48 -19 116 -55 176 -81 185 -81 5 0 23 -7 40
-15 17 -8 45 -22 62 -30 17 -8 35 -15 41 -15 5 0 24 -6 41 -14 64 -27 173 -70
223 -87 28 -9 90 -35 138 -58 48 -23 90 -41 93 -41 3 0 19 -6 36 -14 18 -8 61
-26 97 -41 36 -14 74 -30 85 -35 54 -25 195 -80 205 -80 10 0 47 -15 125 -50
11 -5 49 -21 85 -35 36 -14 74 -30 85 -35 11 -5 40 -17 65 -28 296 -124 326
-139 367 -178 45 -43 52 -67 29 -100 -20 -27 -114 -25 -178 5 -26 11 -51 21
-57 21 -5 0 -22 6 -38 14 -78 38 -268 116 -282 116 -11 0 -43 13 -136 55 -16
7 -50 21 -75 30 -25 9 -58 23 -73 31 -16 8 -34 14 -40 14 -7 1 -30 9 -52 20
-22 11 -46 19 -53 20 -7 0 -20 4 -30 10 -9 5 -35 16 -57 24 -22 7 -76 26 -120
41 -44 16 -92 34 -107 42 -14 7 -32 13 -40 13 -7 1 -31 9 -53 20 -22 11 -45
19 -52 20 -6 0 -25 7 -42 15 -17 8 -45 22 -62 30 -17 8 -37 15 -46 15 -8 0
-27 6 -41 14 -15 8 -76 33 -137 55 -60 23 -117 46 -126 51 -9 5 -34 12 -55 16
-22 3 -50 12 -64 19 -47 24 -101 45 -113 45 -7 1 -30 9 -52 20 -22 11 -45 19
-51 20 -6 0 -45 14 -85 31 -41 17 -92 38 -114 47 -22 9 -73 31 -113 49 -53 24
-87 33 -126 33 -48 0 -56 -3 -88 -38 -47 -51 -65 -88 -89 -180 l-20 -76 21
-46 c24 -52 57 -72 184 -115 44 -15 104 -38 134 -51 30 -13 61 -24 69 -24 8 0
33 -8 56 -18 23 -10 62 -27 87 -36 25 -10 59 -24 75 -32 33 -14 213 -86 285
-114 101 -39 187 -73 215 -85 17 -8 59 -27 95 -43 36 -16 110 -48 165 -71 55
-23 109 -46 120 -51 58 -26 215 -90 221 -90 7 0 51 -20 169 -75 107 -50 185
-85 191 -85 3 0 20 -6 37 -14 82 -38 195 -78 252 -90 40 -9 106 -56 124 -88
13 -23 13 -29 -2 -52 -16 -24 -23 -26 -91 -26 -73 0 -88 4 -211 60 -22 9 -71
30 -110 44 -38 15 -86 33 -105 41 -47 18 -128 44 -168 55 -18 4 -38 12 -45 18
-7 5 -28 13 -47 17 -19 4 -41 11 -50 16 -17 10 -89 36 -135 49 -34 9 -85 30
-225 88 -52 21 -112 42 -134 46 -21 4 -52 13 -70 21 -17 7 -47 20 -68 29 -20
9 -41 16 -48 16 -7 0 -24 6 -38 14 -15 7 -54 23 -87 36 -33 12 -72 28 -87 36
-14 8 -32 14 -40 14 -7 0 -68 23 -135 50 -67 28 -129 50 -136 50 -13 0 -59 18
-132 50 -11 5 -49 21 -85 36 -36 14 -69 30 -75 34 -15 11 -155 58 -195 64 -70
12 -144 -56 -189 -172 -26 -67 -27 -118 -2 -158 22 -36 102 -84 181 -109 30
-10 69 -23 85 -30 17 -7 55 -23 85 -35 30 -11 70 -28 88 -36 17 -8 48 -21 67
-29 93 -39 149 -63 246 -108 42 -19 91 -38 108 -42 38 -8 150 -65 194 -99 36
-27 102 -54 162 -65 52 -10 148 -42 216 -73 30 -14 81 -35 114 -47 33 -13 69
-27 80 -32 11 -4 38 -15 60 -22 22 -8 76 -26 120 -41 77 -26 99 -35 183 -73
59 -27 121 -81 144 -126 20 -41 21 -49 14 -324 -8 -308 -3 -349 40 -378 25
-16 30 -16 97 4 93 26 160 50 171 62 6 5 19 9 30 9 12 0 33 6 47 14 14 7 42
16 62 20 20 4 49 13 64 21 15 8 39 15 53 15 14 1 36 7 50 15 14 8 34 14 45 15
11 0 32 6 46 14 14 7 43 16 65 20 21 4 111 30 199 57 88 28 185 57 215 65 30
9 69 20 85 26 17 5 46 14 65 18 19 4 49 13 65 19 17 5 64 20 105 32 41 12 91
27 110 34 19 7 58 17 85 23 44 8 86 19 280 76 28 8 80 24 116 35 36 12 72 21
81 21 9 0 29 7 44 15 16 8 38 15 49 15 11 0 40 7 65 15 139 45 171 55 184 55
7 0 27 7 42 15 16 8 40 15 54 15 14 0 41 5 60 11 19 6 59 17 88 25 103 28 158
43 227 64 83 25 171 48 240 62 52 10 128 28 205 48 25 6 72 17 105 24 33 6 65
15 72 19 6 4 39 11 74 16 35 6 138 26 229 45 91 19 192 40 225 47 33 6 83 17
110 24 66 17 152 34 250 50 135 22 207 35 280 53 96 22 409 22 510 -1 75 -17
135 -29 255 -52 127 -24 183 -36 235 -50 68 -19 128 -34 200 -50 33 -7 103
-23 155 -35 52 -12 115 -24 140 -26 50 -6 198 -37 276 -60 28 -8 62 -14 75
-14 13 0 44 -6 69 -14 25 -8 90 -24 145 -36 55 -12 123 -28 150 -35 74 -19
143 -36 205 -50 30 -8 84 -21 120 -30 36 -9 88 -21 115 -27 79 -17 268 -70
338 -94 20 -8 46 -14 57 -14 11 0 34 -6 52 -14 18 -7 53 -19 78 -25 25 -7 63
-17 85 -22 22 -6 49 -14 60 -19 20 -8 151 -48 250 -77 46 -13 106 -32 225 -70
25 -9 59 -21 77 -29 17 -8 39 -14 50 -14 10 0 27 -6 38 -14 11 -7 31 -16 45
-19 27 -6 208 -70 300 -106 30 -11 74 -21 98 -21 64 0 68 16 49 191 -9 79 -19
196 -23 259 -3 63 -10 135 -15 160 -9 44 -26 155 -49 330 -6 47 -17 117 -25
155 -13 67 -19 101 -50 295 -30 186 -49 243 -97 287 -34 32 -118 71 -232 108
-113 38 -271 92 -301 104 -33 14 -159 51 -171 51 -7 0 -25 7 -40 15 -16 8 -40
15 -54 15 -14 0 -45 6 -70 14 -44 14 -80 22 -230 51 -148 29 -525 90 -615 100
-27 3 -81 12 -120 20 -105 21 -207 35 -335 46 -63 5 -140 13 -170 19 -30 5
-156 15 -280 20 -124 6 -274 15 -335 20 -60 5 -186 9 -280 10 -93 0 -296 7
-450 15 -318 17 -659 19 -850 5 -71 -5 -195 -12 -275 -15 -80 -3 -212 -12
-295 -20 -82 -8 -224 -19 -315 -25 -411 -25 -501 -32 -586 -45 -49 -8 -113
-15 -142 -15 -28 0 -87 -6 -129 -14 -43 -8 -136 -20 -208 -25 -130 -11 -270
-30 -355 -49 -25 -6 -90 -20 -145 -32 -94 -20 -132 -29 -245 -59 -25 -7 -66
-16 -92 -21 -26 -5 -55 -13 -65 -18 -10 -5 -36 -13 -58 -17 -22 -4 -45 -11
-51 -16 -19 -15 -145 -27 -204 -19 -56 8 -71 13 -225 85 -49 24 -135 62 -190
85 -55 23 -104 46 -110 50 -5 4 -23 10 -40 14 -16 4 -45 13 -62 21 -78 36
-197 83 -323 130 -89 33 -228 88 -258 101 -18 8 -40 14 -49 14 -9 0 -34 9 -57
19 -23 10 -61 26 -86 36 -25 9 -58 23 -75 30 -16 6 -57 22 -90 34 -33 12 -75
29 -93 37 -18 8 -38 14 -45 14 -7 0 -44 13 -82 29 -39 16 -120 45 -180 66 -61
20 -130 46 -155 57 -65 29 -98 43 -160 68 -30 11 -70 28 -87 36 -76 33 -102
44 -177 73 -44 17 -98 34 -120 37 -23 3 -52 6 -66 8 -14 2 -41 0 -60 -5z"/>
<path d="M14548 5773 c-50 -6 -68 -33 -68 -103 0 -70 19 -243 32 -295 6 -22
13 -159 17 -305 8 -351 2 -339 251 -434 52 -20 110 -43 128 -51 18 -8 40 -15
48 -15 15 0 87 -29 137 -55 16 -8 35 -15 44 -15 8 0 27 -7 41 -15 43 -23 120
-55 134 -55 7 0 22 -7 32 -15 11 -8 26 -15 33 -15 7 0 45 -15 85 -33 40 -18
93 -41 118 -51 52 -21 77 -31 180 -79 41 -19 95 -42 120 -52 110 -45 200 -89
256 -128 97 -66 123 -122 154 -327 12 -80 28 -176 35 -215 8 -38 19 -106 26
-150 32 -224 40 -277 49 -360 6 -49 17 -128 25 -175 9 -47 15 -104 15 -127 0
-23 6 -75 14 -115 14 -71 22 -138 51 -453 8 -82 19 -190 24 -240 6 -49 11
-175 11 -278 0 -216 -3 -227 -80 -305 -43 -43 -178 -122 -210 -122 -7 0 -26
-6 -43 -14 -33 -15 -60 -22 -217 -61 -202 -50 -652 -54 -825 -8 -107 28 -189
54 -217 69 -14 8 -33 14 -41 14 -9 0 -28 6 -44 14 -15 8 -66 33 -113 56 -163
80 -259 167 -326 295 -75 145 -88 144 -214 -20 -66 -85 -63 -82 -96 -123 -28
-35 -141 -123 -234 -183 -63 -41 -204 -109 -225 -109 -8 0 -29 -6 -47 -14 -18
-8 -69 -19 -113 -25 -44 -6 -105 -16 -135 -22 -97 -19 -362 -14 -475 9 -55 11
-111 23 -125 25 -102 21 -282 107 -510 247 -360 219 -535 273 -997 307 -149
11 -402 -27 -518 -77 -79 -34 -79 -34 -180 -102 -82 -55 -157 -125 -203 -191
-69 -99 -139 -96 -272 13 -44 36 -100 81 -126 100 -25 19 -51 40 -58 45 -11
10 -55 40 -91 62 -47 29 -244 123 -256 123 -8 0 -43 8 -79 19 -125 37 -166 43
-310 48 -117 5 -157 2 -202 -11 -31 -9 -66 -16 -78 -16 -12 0 -36 -6 -53 -14
-18 -8 -52 -19 -77 -25 -37 -8 -163 -50 -255 -86 -37 -14 -200 -95 -230 -115
-28 -18 -131 -70 -220 -110 -107 -49 -135 -60 -149 -60 -8 0 -17 -4 -21 -9 -3
-5 -20 -13 -38 -17 -17 -3 -45 -13 -62 -20 -16 -7 -57 -23 -90 -35 -33 -12
-74 -28 -92 -35 -17 -8 -38 -14 -46 -14 -8 0 -32 -8 -53 -17 -33 -15 -71 -17
-234 -17 -129 0 -210 5 -240 14 -25 7 -70 18 -100 25 -153 36 -203 53 -325
111 -153 73 -206 112 -388 281 -60 55 -119 103 -131 105 -44 9 -84 -14 -181
-103 -136 -124 -166 -148 -265 -206 -124 -73 -200 -105 -288 -124 -24 -5 -49
-12 -55 -16 -7 -4 -59 -13 -117 -20 -58 -7 -134 -18 -170 -24 -95 -16 -425
-17 -475 0 -22 7 -65 19 -95 26 -116 29 -146 38 -172 51 -14 8 -34 14 -45 14
-10 0 -30 6 -44 14 -14 7 -38 16 -54 20 -42 11 -233 104 -284 139 -66 45 -123
105 -174 184 -58 89 -114 145 -141 141 -34 -5 -42 -80 -33 -280 5 -95 5 -281
1 -413 -10 -334 -10 -356 5 -394 18 -42 37 -49 184 -63 93 -8 288 -8 822 1
454 7 1071 9 1755 5 580 -3 1246 -5 1480 -3 234 2 1395 2 2580 0 1185 -2 2432
-4 2770 -5 338 0 1144 6 1790 14 646 7 1366 14 1600 14 460 1 507 6 551 52 24
25 24 27 27 308 4 303 -9 611 -28 645 -15 29 -50 26 -86 -9 -57 -53 -109 -52
-143 3 -23 38 -37 136 -51 362 -5 88 -14 210 -20 270 -6 61 -15 175 -20 255
-6 80 -15 210 -21 290 -5 80 -16 188 -24 240 -8 53 -15 123 -15 155 0 33 -7
91 -15 130 -8 38 -15 89 -15 111 0 23 -5 66 -11 95 -6 30 -17 106 -25 169 -31
257 -45 324 -80 397 -36 74 -76 100 -384 245 -179 84 -256 118 -271 118 -6 0
-29 8 -52 18 -23 10 -62 26 -87 36 -116 46 -209 99 -252 144 -88 91 -83 54
-81 592 2 371 0 479 -10 492 -7 9 -31 25 -52 36 -37 19 -65 20 -380 25 -187 2
-357 3 -377 0z"/>
<path d="M10145 5672 c-16 -2 -50 -9 -75 -17 -25 -7 -76 -16 -114 -20 -62 -5
-183 -24 -351 -55 -33 -7 -94 -18 -135 -25 -41 -8 -106 -19 -145 -24 -86 -12
-200 -37 -225 -51 -10 -5 -31 -10 -45 -10 -14 0 -35 -5 -46 -10 -10 -6 -51
-17 -91 -25 -40 -7 -104 -21 -143 -29 -38 -8 -95 -20 -125 -26 -110 -22 -246
-53 -295 -67 -75 -21 -145 -40 -195 -52 -25 -7 -70 -19 -100 -27 -54 -15 -122
-33 -207 -54 -24 -5 -62 -15 -85 -20 -24 -6 -69 -17 -100 -25 -32 -8 -86 -21
-119 -29 -34 -8 -73 -19 -88 -25 -14 -5 -69 -19 -121 -31 -52 -12 -115 -28
-140 -36 -25 -8 -53 -14 -64 -14 -10 0 -39 -6 -65 -14 -25 -8 -80 -25 -121
-37 -139 -40 -177 -52 -280 -89 -19 -6 -60 -17 -90 -24 -30 -7 -73 -18 -95
-26 -103 -33 -125 -40 -195 -60 -164 -46 -186 -53 -218 -66 -18 -8 -40 -14
-50 -14 -9 0 -29 -6 -43 -14 -14 -7 -39 -16 -55 -20 -16 -4 -42 -13 -59 -20
-41 -19 -93 -36 -140 -47 -22 -6 -71 -21 -110 -35 -104 -37 -141 -48 -345 -99
-128 -33 -147 -38 -178 -51 -18 -8 -40 -14 -48 -14 -9 0 -30 -6 -47 -14 -79
-36 -130 -56 -141 -56 -6 0 -45 -14 -86 -31 -41 -17 -88 -35 -105 -39 -37 -10
-90 -28 -130 -45 -16 -7 -57 -22 -90 -34 -33 -12 -75 -29 -93 -37 -18 -8 -40
-14 -48 -14 -9 0 -28 -6 -42 -14 -39 -21 -129 -56 -142 -56 -28 0 -117 -65
-136 -99 -36 -63 -76 -296 -89 -516 -4 -55 -13 -125 -21 -155 -8 -30 -14 -86
-14 -125 0 -38 -7 -131 -16 -205 -13 -106 -16 -241 -17 -625 l-1 -490 23 -45
c31 -60 120 -139 229 -205 9 -6 35 -22 57 -36 69 -44 179 -95 251 -116 187
-55 208 -58 444 -57 198 0 234 3 302 22 87 24 163 48 193 61 97 44 128 59 180
89 33 20 77 50 98 69 20 18 41 33 46 33 4 0 64 55 132 121 94 92 139 129 187
151 84 40 114 34 178 -34 112 -118 132 -137 199 -189 158 -124 348 -230 484
-268 291 -81 693 -34 1030 120 128 59 151 71 157 80 3 5 13 9 22 9 9 0 76 25
147 56 72 31 139 60 150 64 11 5 41 18 66 28 26 11 61 23 78 27 17 3 33 11 36
16 4 5 14 9 23 9 9 1 35 9 57 20 22 11 47 19 56 20 9 0 30 7 45 15 16 8 41 15
55 15 14 0 48 7 75 15 98 28 301 48 434 41 155 -8 366 -42 435 -70 61 -26 181
-89 200 -107 11 -10 74 -61 140 -113 128 -102 170 -119 180 -73 8 38 29 2014
32 3052 2 928 1 991 -15 1011 -20 23 -44 31 -87 26z"/>
</g>
</svg>
