<svg width="101" height="18" viewBox="0 0 101 18" fill="none" xmlns="http://www.w3.org/2000/svg">
<g clip-path="url(#clip0_28_192)">
<path d="M7.53485 4.07497H7.60065L9.09497 8.95557H12.3026L9.90794 1.30484C9.73217 0.737658 9.3149 0.55603 8.82975 0.55603H6.3057C5.82162 0.55603 5.40437 0.737658 5.22755 1.30484L2.83398 8.95557H6.04047L7.53485 4.07497Z" fill="#00796A"/>
<path d="M12.4333 9.45526H9.05107L7.60091 12.3614H7.53511L6.08603 9.45526H2.7038L0.0234375 17.5595H3.33992L4.83321 12.8606L6.5691 15.7432C6.65641 15.8546 6.74372 15.9248 7.07475 15.9248H8.08499C8.40843 15.9248 8.50226 15.858 8.58957 15.7432L10.306 12.8606L11.8004 17.5595H15.1169L12.4333 9.45526Z" fill="#00AD8E"/>
<path fill-rule="evenodd" clip-rule="evenodd" d="M24.9002 8.03748C26.3482 8.03748 27.628 7.33548 27.628 5.18935V0.590658H26.2642V5.25175C26.2642 6.44184 25.8113 6.85968 24.8959 6.85968C23.9805 6.85968 23.532 6.4407 23.532 5.25175V0.590658H22.1735V5.19047C22.1735 7.33662 23.4533 8.03748 24.9002 8.03748ZM31.7834 2.54402C31.1828 2.54402 30.662 2.89057 30.2081 3.21259V2.64542H29.0858V7.93722H30.3073V4.12186C30.4493 3.95156 30.6243 3.81398 30.821 3.718C31.0177 3.62203 31.2317 3.56981 31.4491 3.56471C31.8631 3.56471 32.0798 3.78757 32.0798 4.50072V7.93722H33.3003V4.31463C33.3003 3.23599 32.8076 2.54402 31.7834 2.54402ZM35.9106 0.489258H34.6891V1.66818H35.9106V0.489258ZM35.9106 2.64542H34.6891V7.93722H35.9106V2.64542ZM39.4751 7.93722L40.9425 2.64542H39.722L38.8595 6.22788H38.839L37.9926 2.64542H36.7678L38.1953 7.93722H39.4751ZM43.4439 8.03862C44.4283 8.03862 45.1172 7.71324 45.5895 6.95994L44.701 6.39054C44.3959 6.75606 44.1285 7.02126 43.5592 7.02126C42.9899 7.02126 42.5145 6.59334 42.4951 5.49467H45.5862V4.97653C45.5862 3.70511 44.8391 2.53288 43.4989 2.54402C42.1112 2.54402 41.2746 3.61262 41.2746 5.29187C41.2746 6.9711 42.1134 8.03748 43.4439 8.03748V8.03862ZM43.4827 3.48002C44.0736 3.48002 44.4477 3.90791 44.467 4.64H42.4983C42.5177 3.90791 42.8919 3.48002 43.4827 3.48002ZM47.7372 4.72135C47.7372 4.58986 48.2687 3.86669 48.879 3.86669C48.951 3.86432 49.0231 3.86767 49.0946 3.87671V2.53956C48.3658 2.55962 47.9517 2.91619 47.6574 3.54242H47.6369V2.64542H46.5156V7.93722H47.7361L47.7372 4.72135ZM51.4699 7.10262C50.948 7.10262 50.5631 6.74712 50.2774 6.34044L49.4602 6.97002C49.6686 7.30446 49.9562 7.57824 50.2959 7.76526C50.6356 7.95234 51.016 8.04642 51.4008 8.03862C52.479 8.03862 53.2823 7.55052 53.2823 6.45072C53.2823 4.51855 50.7216 4.90521 50.7216 3.99929C50.7216 3.68394 50.9373 3.48002 51.4117 3.48002C51.7955 3.48002 52.12 3.76528 52.3658 4.03717L53.1346 3.3452C52.6914 2.80588 52.0111 2.54068 51.3319 2.54068C50.4467 2.54068 49.6391 3.09002 49.6391 4.07729C49.6391 5.91922 52.1987 5.59384 52.1987 6.49866C52.1976 6.85854 51.9022 7.10262 51.4699 7.10262ZM55.595 2.64542H54.3745V7.93722H55.5907L55.595 2.64542ZM55.595 0.489258H54.3745V1.6693H55.5907L55.595 0.489258ZM58.7174 8.03748C59.2694 8.03748 59.6727 7.80348 60.1059 7.3689L60.1657 7.93944H61.1972V0.590658H59.9768V3.13459H59.9571C59.7115 2.80031 59.1293 2.54402 58.7163 2.54402C57.3977 2.54402 56.6678 3.84663 56.6678 5.14924C56.6689 6.79728 57.3578 8.03748 58.7174 8.03748ZM59.0322 3.56026C59.4268 3.56026 59.732 3.7742 59.978 4.00597V6.5499C59.7222 6.7527 59.5541 7.0179 59.0322 7.0179C58.3045 7.0179 57.8904 6.40728 57.8904 5.28853C57.8904 4.16977 58.3034 3.56137 59.0311 3.56137L59.0322 3.56026ZM65.0699 7.93608H66.2645C66.1916 7.689 66.1581 7.43106 66.1665 7.17282V4.68124C66.1665 3.09337 65.5755 2.57522 64.1967 2.54402C63.4497 2.52396 62.6022 2.95073 62.2873 3.51122L63.0744 4.13189C63.3104 3.7976 63.6266 3.48002 64.1967 3.48002C64.6282 3.48002 64.9515 3.70288 64.9515 4.11071V4.55644C62.9512 4.80604 62.0058 5.43338 62.0058 6.63348C62.0058 7.35666 62.4684 8.03862 63.3935 8.03862C64.0342 8.03862 64.4967 7.8258 64.9892 7.48146L65.0699 7.93608ZM64.9426 6.5421C64.6862 6.76494 64.2045 7.09926 63.8202 7.09926C63.4754 7.09926 63.2297 6.87642 63.2297 6.47862C63.2297 5.73536 64.1256 5.56264 64.9426 5.39996V6.5421ZM69.1152 8.03748C69.6663 8.03748 70.0708 7.80348 70.5029 7.3689L70.5621 7.93944H71.5972V0.590658H70.3756V3.13459H70.3619C70.1151 2.80031 69.5348 2.54402 69.1206 2.54402C67.801 2.54402 67.0719 3.84663 67.0719 5.14924C67.0677 6.79728 67.7568 8.03748 69.1152 8.03748ZM69.4314 3.56026C69.824 3.56026 70.1288 3.7742 70.3756 4.00597V6.5499C70.1193 6.7527 69.9519 7.0179 69.4314 7.0179C68.7011 7.0179 68.2887 6.40728 68.2887 5.28853C68.2887 4.16977 68.7011 3.56137 69.4314 3.56137V3.56026ZM75.8906 6.38946C75.5858 6.75492 75.3193 7.02012 74.7479 7.02012C74.1766 7.02012 73.7039 6.5889 73.6847 5.49467H76.7769V4.97653C76.7769 3.70511 76.0286 2.53288 74.6894 2.54402C73.3011 2.54402 72.4644 3.61262 72.4644 5.29187C72.4644 6.9711 73.3011 8.03748 74.6302 8.03748C75.6145 8.03748 76.3048 7.7121 76.7769 6.95886L75.8906 6.38946ZM74.6744 3.48002C75.2643 3.48002 75.6384 3.90791 75.6587 4.64H73.6847C73.7039 3.90791 74.0792 3.48002 74.6744 3.48002ZM23.7628 15.8375H26.0086L26.4011 17.4243H27.751L25.7337 10.07H24.0398L21.9913 17.4243H23.3401L23.7628 15.8375ZM24.8959 11.4818H24.9154L25.7121 14.6776H24.0593L24.8959 11.4818ZM29.9634 13.609C30.1052 13.4387 30.28 13.3012 30.4765 13.2052C30.673 13.1093 30.8868 13.057 31.1041 13.0518C31.5181 13.0518 31.7348 13.2747 31.7348 13.9889V17.4277H32.9489V13.7962C32.9489 12.7175 32.4572 12.0256 31.433 12.0256C30.8324 12.0256 30.3106 12.3721 29.8577 12.6941V12.1247H28.7375V17.4154H29.9591L29.9634 13.609ZM35.4287 13.609C35.571 13.4387 35.7461 13.3012 35.943 13.2053C36.1399 13.1093 36.354 13.057 36.5715 13.0518C36.9845 13.0518 37.2012 13.2747 37.2012 13.9889V17.4277H38.4261V13.7962C38.4261 12.7175 37.9344 12.0256 36.9101 12.0256C36.3095 12.0256 35.8082 12.3721 35.433 12.6941V10.0722H34.2125V17.4187H35.4287V13.609ZM41.514 12.0311C40.1263 12.0311 39.2896 13.0997 39.2896 14.779C39.2896 16.4582 40.1263 17.5257 41.4546 17.5257C42.4401 17.5257 43.1291 17.2003 43.6013 16.4471L42.7161 15.8777C42.4153 16.2387 42.149 16.5061 41.5743 16.5061C40.9996 16.5061 40.5306 16.0783 40.5113 14.9785H43.6013V14.4603C43.6056 13.1855 42.8584 12.0155 41.5183 12.0256L41.514 12.0311ZM40.5113 14.1282C40.5306 13.395 40.9037 12.9671 41.4945 12.9682C42.0854 12.9694 42.4595 13.395 42.4789 14.1282H40.5113ZM47.4666 13.7204V17.4143H48.6903V13.609C48.9771 13.3348 49.3997 13.0384 49.7146 13.0384C50.1577 13.0596 50.3248 13.2936 50.3248 13.7204V17.4143H51.5454V13.609C51.5454 12.3464 50.8176 12.0211 50.286 12.0211C49.4397 12.0211 48.9469 12.3554 48.5243 12.7944C48.2968 12.2863 47.7954 12.0211 47.2639 12.0211C46.5641 12.0211 46.1911 12.2562 45.7275 12.6897V12.1202H44.6116V17.4109H45.832V13.609C46.1178 13.3348 46.5415 13.0384 46.8563 13.0384C47.2995 13.0641 47.4666 13.2981 47.4666 13.7204ZM52.8144 10.0678V17.4143H53.7696L53.9076 16.8437C54.3389 17.2817 54.7443 17.5123 55.2953 17.5123C56.6548 17.5123 57.3438 16.271 57.3438 14.623C57.3438 13.3204 56.615 12.0178 55.2953 12.0178C54.8823 12.0178 54.3012 12.2729 54.0554 12.6083H54.0349V10.0722L52.8144 10.0678ZM54.9804 13.0384C55.7092 13.0384 56.1222 13.6491 56.1222 14.7689C56.1222 15.8888 55.7092 16.5061 54.9804 16.5061C54.4586 16.5061 54.2915 16.2409 54.0349 16.037V13.4975C54.2817 13.2568 54.5869 13.0429 54.9804 13.0429V13.0384ZM59.4118 9.96636H58.1901V11.1464H59.4118V9.96636ZM58.1901 17.4143H59.4118V12.128H58.1901V17.4143ZM65.3149 11.6356H65.334L66.9118 17.4187H67.9445L69.539 11.64H69.5605V17.4187H70.7468V10.0722H68.8164L67.4389 15.1979H67.4185L66.05 10.0722H64.134V17.4187H65.3203L65.3149 11.6356ZM74.0009 12.0211C72.6108 12.0211 71.7741 13.0897 71.7741 14.7689C71.7741 16.4482 72.6108 17.5157 74.0009 17.5157C75.3904 17.5157 76.2247 16.4471 76.2247 14.7689C76.2247 13.0908 75.3874 12.0256 74.0009 12.0256V12.0211ZM74.0009 16.4995C73.3214 16.4995 72.9957 15.949 72.9957 14.7689C72.9957 13.5889 73.319 13.0384 74.0009 13.0384C74.6822 13.0384 75.0043 13.5889 75.0043 14.7689C75.0043 15.949 74.6798 16.5061 74.0009 16.5061V16.4995ZM78.1556 13.0295H78.1365V12.1236H77.0142V17.4143H78.2327V14.204C78.2327 14.0714 78.7628 13.3493 79.373 13.3493C79.4453 13.3472 79.517 13.3502 79.5888 13.3583V12.0211C78.8656 12.049 78.4479 12.4022 78.1556 13.034V13.0295ZM81.8884 17.5157C82.4879 17.5157 83.0096 17.1703 83.4626 16.8471V17.4176H84.5862V12.128H83.3646V15.949C83.2224 16.1194 83.0472 16.257 82.8506 16.3529C82.6534 16.4489 82.4395 16.5011 82.2219 16.5061C81.8078 16.5061 81.5908 16.2833 81.5908 15.569V12.128H80.3717V15.7507C80.3717 16.8281 80.8641 17.5201 81.8884 17.5201V17.5157ZM91.5175 12.0211C90.6713 12.0211 90.1788 12.3554 89.7563 12.7944C89.5286 12.2863 89.0284 12.0211 88.4959 12.0211C87.7972 12.0211 87.4177 12.2562 86.9594 12.6897V12.1202H85.8478V17.4109H87.0735V13.609C87.358 13.3348 87.7817 13.0384 88.0967 13.0384C88.5401 13.0596 88.708 13.2936 88.708 13.7204V17.4143H89.9284V13.609C90.2141 13.3348 90.6378 13.0384 90.9528 13.0384C91.3962 13.0596 91.5617 13.2936 91.5617 13.7204V17.4143H92.7839V13.609C92.7779 12.3509 92.0506 12.0256 91.5175 12.0256V12.0211ZM95.1428 16.8437C95.5736 17.2817 95.9806 17.5123 96.5311 17.5123C97.8901 17.5123 98.5797 16.271 98.5797 14.623C98.5797 13.3204 97.8512 12.0178 96.5311 12.0178C96.1175 12.0178 95.536 12.2729 95.2904 12.6083H95.2677V10.0722H94.0503V17.4187H95.0059L95.1428 16.8437ZM95.2677 13.4975C95.5133 13.2624 95.8199 13.0518 96.2131 13.0518C96.941 13.0518 97.3552 13.6625 97.3552 14.7823C97.3552 15.9022 96.944 16.5061 96.2167 16.5061C95.6938 16.5061 95.5276 16.2409 95.2712 16.037L95.2677 13.4975ZM100.874 9.97638H99.6537V11.1564H100.874V9.97638ZM100.874 12.1336H99.6537V17.4243H100.874V12.1336ZM18.291 17.5814H18.4549V0.556116H18.291V17.5814Z" fill="#E7E7E7"/>
</g>
<defs>
<clipPath id="clip0_28_192">
<rect width="101" height="18" fill="white"/>
</clipPath>
</defs>
</svg>
