<svg width="683" height="683" viewBox="0 0 683 683" fill="none" xmlns="http://www.w3.org/2000/svg">
<rect width="100%" height="100%" fill="#2292fb"/>
<g clip-path="url(#clip0_22_29)">
<path d="M67.0457 399.289C66.6484 406.667 66.9635 415.805 66.5681 415.425C62.4037 411.418 61.6794 404.229 61.0108 400.88C60.7494 399.572 61.5604 398.952 62.2239 398.856C66.0673 398.296 70.9979 401.506 78.8938 405.767C84.3141 408.692 89.1141 417.34 95.3116 427.699C96.3211 429.387 97.1983 429.538 98.0515 429.557C101.956 429.645 105.364 426.392 108.649 424.855C116.1 421.366 128.752 417.985 134.838 416.232C141.997 414.17 154.58 412.822 160.88 413.406C165.467 413.831 170.84 414.723 175.383 415.567C180.084 416.441 184.593 416.836 188.229 417.224C191.453 417.568 192.611 421.809 194.954 428.855C200.87 446.648 204.305 449.779 206.554 453.462C208.854 457.229 212.82 459.84 219.02 463.536C225.123 467.174 230.375 471.273 235.019 474.133C238.536 476.299 241.712 477.355 245.713 478.676C253.242 481.161 259.75 484.211 269.821 489.481C275.327 492.362 279.649 495.335 288.346 498.884C293.306 500.908 298.739 503.477 306.367 505.302C314.734 507.304 320.993 507.852 323.114 508.494C326.398 509.488 338.32 510.1 354.78 511.017C372.115 511.982 384.74 509.611 390.773 508.496C397.085 507.331 404.878 505.525 409.737 503.996C413.666 502.76 417.068 500.831 420.619 498.608C429.286 493.182 441.646 485.104 451.31 478.198C458.007 473.413 462.639 466.453 466.815 460.91C471.867 454.207 475.868 446.215 480.778 438.839C483.102 435.347 485.267 430.919 487.332 427.303C488.326 425.565 489.104 423.559 490.477 421.815C493.712 417.702 502.291 418.415 508.44 417.13C516.168 415.515 519.904 415.965 529.55 414.276C535.309 413.268 539.372 413.634 544.525 413.028C556.995 411.562 572.284 408.615 577.46 407.29C582.568 405.981 589.23 404.58 595.083 402.818C600.354 401.23 604.016 401.526 608.364 400.315C611.975 399.31 618.927 399.157 624.082 398.79C624.999 398.724 625.96 398.587 625.764 398.977C623.781 402.922 620.558 404.822 618.383 410C616.28 415.008 613.087 424.655 610.704 428.997C608.589 432.852 604.692 438.717 601.534 443.765C596.759 451.397 594.023 455.921 588.154 464.387C575.221 483.042 573.227 488.287 570.774 491.728C567.788 495.918 565.596 499.028 562.169 503.25C558.617 507.624 553.343 513.193 544.53 522.748C537.988 529.841 529.881 535.922 524.423 541.062C519.537 545.662 513.742 550.039 498.432 562.595C490.954 568.728 486.573 571.793 482.837 574.199C479.632 576.262 465.343 587.581 455.899 594.368C451.874 597.26 447.523 598.364 438.619 602.245C428.633 606.597 414.397 611.793 410.843 612.997C406.245 614.556 401.173 615.798 395.894 616.729C390.248 617.724 384.131 618.538 379.051 618.904C374.309 619.245 369.971 619.792 360.436 621.483C351.681 623.036 346.56 623.21 341.946 624.003C331.536 625.792 320.864 624.805 311.631 622.685C305.783 621.341 300.989 621.04 296.356 620.357C287.82 619.098 279.815 617.238 262.327 612.674C257.842 611.504 255.639 610.194 250.1 607.838C228.819 598.784 222.801 596.89 218.996 594.676C217.168 593.612 211.839 591.083 203.427 586.159C187.467 576.817 178.761 568.064 173.388 563.815C167.854 559.439 165.701 557.294 162.696 554.947C158.911 551.992 155.254 549.357 152.614 547.399C149.72 545.253 142.698 540.719 129.249 530.514C118.339 522.235 116.388 518.97 112.531 515.275C107.329 510.29 104.214 505.193 101.238 500.534C99.3741 497.616 97.3466 493.378 95.2987 489.567C91.2973 482.121 85.4787 468.696 83.4739 463.051C80.8292 455.605 100.903 461.912 105.866 462.232C112.213 462.642 117.308 462.529 128.097 462.357C133.68 462.268 138.85 462.302 142.191 463.493C146.158 464.908 150.344 467.331 154.894 470.341C159.422 473.335 162.91 476.194 166.977 479.938C170.44 483.127 173.155 486.54 176.16 489.338C181.837 494.624 189.661 501.869 197.839 510.41C201.912 514.664 206.132 518.026 209.376 520.189C212.09 522 215.606 522.754 219.248 524.338C224.444 526.598 234.732 531.634 241.906 534.084C245.452 535.295 249.955 536.561 254.303 537.765C258.163 538.833 261.035 540.129 267.018 541.501C272.556 542.771 276.627 543.621 280.868 545.467C284.919 547.23 289.604 548.04 293.104 549.374C297.459 551.033 307.587 551.954 315.299 552.909C318.867 553.351 322.303 554.571 325.509 555.204C330.645 556.216 337.708 556.996 344.712 558.317C349.466 559.213 355.62 559.214 365.049 559.61C367.605 559.718 370.105 560.153 381.903 560.103C393.701 560.053 414.718 559.579 426.321 559.132C442.564 558.505 447.028 556.327 452.589 553.375C468.698 544.82 471.315 542.277 477.434 537.311C482.341 533.328 489.491 525.467 493.321 520.938C496.208 517.525 499.86 511.913 505.054 506.062C508.537 502.138 511.601 498.878 518.513 492.088C522.431 488.24 525.986 482.628 528.828 477.859C530.743 474.647 531.991 471.477 533.264 468.4C534.97 464.275 539.665 460.356 543.288 457.068C544.188 456.378 545.023 455.855 545.49 455.11C545.956 454.364 546.03 453.411 546.417 451.821" stroke="white" stroke-width="81" stroke-linecap="round"/>
<path d="M30.0332 339.508C31.5949 339.595 38.4821 339.725 42.9331 339.952C45.5718 340.086 49.4917 340.048 54.1 340.111C63.7426 340.244 71.5559 341.182 77.4503 341.604C88.6809 342.409 97.5891 342.965 100.812 343.398C107.983 344.362 110.899 344.475 114.498 344.938C118.767 345.487 121.984 345.594 126.964 346.662C131.484 347.632 140.077 349.347 145.336 350.406C155.807 352.516 161.208 352.742 167.719 353.104C169.922 353.226 172.526 353.331 176.505 353.879C180.483 354.428 185.758 355.391 191.658 356.05C203.887 357.416 211.282 357.507 213.98 357.719C218.836 358.102 222.849 357.942 224.557 358.203C225.923 358.411 230.86 358.927 237.768 359.49C245.186 360.094 253.42 360.141 255.909 360.24C256.695 360.272 257.663 360.338 258.194 360.103C260.467 359.098 262.255 349.512 263.878 344.359C264.973 340.879 265.085 339.108 264.992 338.319C264.945 337.919 264.193 337.778 263.647 337.824C261.136 338.033 259.231 339.865 258.721 339.831C254.437 339.542 262.165 332.464 263.514 329.494C265.83 324.393 266.429 321.837 267.346 319.343C268.814 315.353 270.024 313.079 270.842 311.129C272.05 308.254 274.084 305.229 279.081 299.802C281.496 297.18 283.503 295.882 285.809 293.869C288.289 291.703 292.627 288.03 295.224 285.47C297.317 283.407 300.514 281.139 302.348 279.434C303.95 277.945 306.161 276.945 308.632 275.606C315.17 272.062 320.677 270.15 323.825 269.102C326.52 268.205 329.775 268.1 332.567 267.72C336.238 267.22 339.117 267.351 343.324 267.101C347.674 266.843 349.963 266.707 353.509 266.218C359.377 265.41 367.336 266.129 369.509 267.592C371.353 268.834 372.117 271.139 374.769 273.135C376.744 274.621 378.672 275.384 380.77 276.627C383.132 278.025 385.736 280.485 388.069 282.71C390.397 284.93 391.621 287.467 392.834 289.338C394.379 291.72 396.212 293.883 399.194 297.905C401.211 300.627 403.657 301.817 405.47 302.996C407.525 304.333 408.327 307.301 409.498 309.135C411.579 312.392 414.658 317.413 416.418 321.277C417.932 324.602 418.843 326.571 420.485 329.686C422.001 332.562 422.314 336.338 423.287 339.635C424.471 343.649 423.875 350.089 424.171 352.761C424.444 355.221 423.811 358.987 423.68 361.772C423.542 364.685 423.605 369.093 423.12 372.095C422.481 376.042 421.403 378.142 420.385 381.064C418.999 385.048 417.4 389.078 416.25 391.741C414.569 395.633 412.141 399.362 410.069 402.22C408.63 404.205 404.968 407.946 401.276 411.736C393.821 419.388 390.442 421.332 387.081 423.644C383.428 426.157 376.953 428.888 372.143 430.978C369.579 432.092 366.302 432.427 364.14 432.891C361.278 433.503 356.758 434.98 352.737 436.098C350.065 436.841 344.996 437.779 340.829 438.431C335.492 439.265 332.312 439.604 329.944 439.6C327.351 439.595 324.554 439.143 321.586 439.011C317.16 438.815 313.432 437.511 309.816 436.172C305.457 434.559 301.285 431.704 298.255 430.318C293.798 428.279 291.278 426.883 288.624 425.607C286.483 424.578 284.929 422.9 283.017 419.923C281.218 417.121 281 414.583 280.121 412.557C279.311 410.691 278.076 408.784 275.827 406.089C273.983 403.878 270.567 399.096 268.3 396.075C266.331 393.451 264.763 390.796 263.148 388.02C261.614 385.385 260.028 381.847 259.19 379.141C258.28 376.203 256.641 372.624 255.692 369.9C254.932 367.723 254.584 363.64 253.839 359.908C253.32 357.312 252.759 355.064 252.183 352.582C251.427 349.321 251.627 346.515 251.429 343.634C251.079 338.529 252.8 335.386 254.045 332.144C256.666 325.318 258.799 323.478 259.829 321.455C261.157 318.847 261.678 316.109 262.952 312.959C263.901 310.61 266.491 308.276 268.793 306.253C273.159 302.417 277.424 297.061 279.493 294.521C282.047 291.387 284.272 289.311 286.308 287.8C288.169 286.419 290.568 285.506 292.962 284.72C295.439 283.907 297.145 282.439 299.091 281.138C301.4 279.595 304.515 276.831 307.141 275.185C309.771 273.536 313.032 272.955 316.648 272.207C319.161 271.687 322.964 272.444 329.887 274.729C334.031 276.097 337.038 276.939 339.438 277.055C345.894 277.365 354.651 274.922 357.469 275.387C362 276.134 363.906 278.445 366.774 279.763C368.822 280.703 375.391 283.006 380.159 284.607C383.515 285.733 386.104 286.186 396.83 290.494C401.015 292.174 402.675 293.707 404.691 295.4C407.908 298.1 408.136 300.685 410.314 304.523C411.633 306.847 412.416 308.724 413.105 311.471C413.941 314.802 415.515 317.355 416.412 319.574C417.962 323.408 419.001 328.896 420.075 331.243C421.544 334.455 422.69 337.691 423.579 340.15C424.538 342.803 425.637 345.616 426.785 347.877C427.797 349.87 429.733 351.398 431.359 353.867C431.751 354.464 432.079 354.916 432.48 355.174C434.151 356.25 442.448 355.729 450.085 356.276C458.182 356.857 465.402 357.708 468.134 358.033C470.608 358.328 473.108 358.934 479.855 359.294C482.751 359.448 484.944 359.593 488.153 359.756C489.655 359.832 491.369 360.58 494.499 360.776C499.43 361.084 505.56 360.711 512.996 360.131C522.781 359.369 528.957 357.983 530.861 357.549C536.686 356.221 539.548 355.747 542.591 355.393C546.521 354.937 551.5 354.585 554.555 354.387C558.458 354.134 561.211 353.929 564.156 353.603C572.302 352.701 584.815 350.16 586.976 349.775C589.882 349.258 595.481 348.139 601.358 346.973C605.133 346.224 609.579 345.361 614.009 344.968C617.08 344.696 619.845 343.625 622.736 343.165C625.862 342.668 628.095 342.122 630.485 342.097C632.683 342.075 635.102 341.41 638.405 341.249C639.836 341.153 641.116 341.021 642.39 340.923C643.037 340.89 643.685 340.89 643.116 340.915" stroke="#82B6FA" stroke-width="36" stroke-linecap="round"/>
<path d="M319.743 331.271C319.539 331.169 319.06 331.198 318.363 331.479C316.737 332.134 314.616 337.463 313.127 340.821C312.165 342.989 311.756 346.985 311.573 349.969C311.372 353.234 311.806 356.839 312.272 361.107C312.677 364.815 315.485 369.079 316.929 371.964C318.456 375.014 324.263 379.1 327.099 380.553C331.599 382.86 336.853 382.824 341.069 383.522C343.231 383.88 347.311 383.185 352.41 382.318C358.557 381.273 361.883 379.39 363.277 378.12C365.11 376.45 364.357 372.698 365.034 370.105C365.688 367.598 367.69 364.855 368.745 362.201C369.848 359.423 369.393 355.439 368.563 351.003C367.609 345.9 365.37 340.885 364.226 338.285C362.964 335.417 360.873 332.802 359.471 330.737C357.921 328.454 353.521 327.78 351.751 327.215C349.723 326.568 346.975 325.978 343.02 325.795C338.546 325.587 336.144 325.512 334.18 325.64C331.588 325.81 327.877 326.544 325.523 327.089C324.649 327.291 323.916 327.681 323.432 328.266C321.835 330.197 326.281 332.608 330.238 335.845C332.889 338.013 332.974 340.784 333.622 342.698C334.816 346.231 336.872 347.599 338.082 348.993C338.746 350.453 339.459 352.188 340.328 353.742C340.579 354.056 340.87 354.318 341.17 354.587" stroke="white" stroke-width="36" stroke-linecap="round"/>
<path d="M104.243 248.462C106.002 246.605 109.37 242.185 109.964 239.064C111.393 231.549 93.8469 248.921 91.4482 252.252C89.0643 255.563 86.6395 258.493 82.3647 260.206C80.2404 261.057 78.2764 262.394 76.5723 264.066C75.7441 264.879 75.3722 265.967 75.6464 266.738C75.9207 267.508 76.95 268.017 79.2142 267.597C90.4211 265.519 94.5198 259.995 99.8217 251.256C104.043 244.298 107.882 231.191 111.354 223.097C115.899 212.498 121.227 197.132 123.784 190.736C125.089 187.472 128.272 183.602 132.917 177.581C138.168 170.775 143.673 166.509 148.964 161.058C151.072 158.887 154.113 155.122 159.501 149.573C172.205 136.488 181.339 128.434 184.076 126.75C190.304 122.919 199.78 117.851 206.555 113.871C211.037 111.239 215.826 108.397 221.141 105.345C224.431 103.456 240.195 96.2579 250.377 91.9158C255.624 89.6781 263.167 89.4343 267.175 88.7079C273.339 87.5907 282.448 85.9431 296.494 81.6673C309.091 77.8328 315.683 76.8203 321.09 75.8949C325.526 75.1356 330.216 74.4763 339.435 74.3139C349.314 74.1399 356.258 74.6825 360.301 74.9967C375.621 76.1871 383.197 78.7861 387.727 80.8604C395.244 84.302 409.43 90.6679 413.827 92.6011C417.932 94.4059 424.7 95.2489 432.169 97.8729C452.252 104.928 456.865 107.539 460.995 109.075C464.393 110.339 467.464 111.574 471.162 113.479C473.208 114.532 475.672 115.532 478.355 116.844C481.199 118.235 491.877 124.172 507.132 131.286C516.366 135.592 517.917 139.7 519.853 143.128C521.833 146.634 525.829 149.716 528.906 153.28C531.777 156.605 534.328 160.274 536.242 163.829C538.41 167.859 543.916 174.033 552.159 190.333C555.845 197.623 559.002 204.301 561.332 209.386C563.289 213.658 565.035 218.79 567.182 223.212C569.531 228.05 570.505 231.114 572.744 235.144C576.734 242.326 577.447 246.3 581.181 252.157C583.724 256.146 586.607 259.803 588.401 263.73C590.007 267.246 591.564 270.572 593.14 274.37C594.023 276.499 595.193 278.178 596.227 279.14C597.458 280.285 599.875 278.86 600.859 278.564C603.936 277.638 594.885 275.536 589.95 274.712C583.035 273.556 578.651 272.92 572.141 271.919C564.716 270.777 557.839 270.699 554.084 271.749C548.873 273.206 543.719 275.203 539.107 276.825C533.811 278.687 529.969 280.943 526.572 282.346C523.589 283.578 520.445 284.527 517.121 284.998C515.257 285.262 513.226 285.232 511.311 284.801C507.765 284.003 502.641 276.885 496.49 265.505C493.975 260.854 492.889 256.649 491.452 250.932C490.407 246.775 488.759 243.944 487.543 240.618C485.837 235.953 483.7 231.016 480.684 225.048C478.535 220.795 472.166 218.286 468.858 215.669C465.498 213.012 461.77 210.645 458.691 209.058C454.955 207.133 451.34 205.216 446.851 202.16C441.442 198.479 432.858 192.252 428.585 189.788C424.877 187.651 420.972 185.137 416.854 182.49C412.832 179.904 409.672 178.788 406.76 176.995C402.849 174.586 398.646 173.181 394.69 171.548C391.159 170.09 385.973 166.789 381.63 164.935C378.764 163.712 368.504 163.961 348.99 165.165C337.694 165.862 323.726 168.632 315.902 169.955C306.848 171.487 304.638 172.388 302.636 173.375C300.623 174.366 288.713 179.771 271.999 188.09C263.065 192.537 258.44 196.04 250.294 201.556C245.61 204.728 242.948 207.451 236.853 213.302C231.306 218.627 221.152 229.118 215.398 234.843C204.592 245.595 192.833 256.151 187.825 260.482C183.942 263.841 176.595 267.976 170.787 271.398C167.55 273.305 162.785 275.966 158.482 277.777C153.074 280.052 145.79 280.802 140.914 282.395C134.532 284.479 156.889 279.712 161.505 280.442C165.385 281.056 169.263 282.449 172.484 284.185C176.545 286.374 180.336 286.677 183.604 287.527C184.371 287.726 185.124 287.912 185.685 287.598C188.8 285.851 189.459 281.011 191.516 277.158C193.627 273.205 194.85 267.921 197.546 261.775C199.333 257.701 201.302 254.36 202.251 250.878C203.222 247.316 205.437 243.244 208.752 235.659C214.812 221.789 220.611 215.042 224.466 209.458C229.422 202.279 239.325 191.951 244.194 188.528C247.553 186.168 253.518 184.16 259.797 182.835C263.428 182.069 269.137 183.315 278.213 185.57C300.246 191.045 304.048 195.236 307.444 196.649C310.573 197.95 315.165 197.933 318.969 196.351C323.454 194.486 328.571 193.134 351.599 192.274C357.675 192.047 369.684 192.771 386.519 193.915C396.556 194.598 402.997 196.152 419.472 197.64C426.161 198.244 432.011 200.228 436.944 202.083C445.634 205.349 454.116 216.258 459.648 223.853C462.272 227.456 465.951 231.366 470.288 234.333C474.471 237.195 478.6 239.49 482.684 240.907C486.091 242.09 487.68 246.195 489.737 250.889C491.569 255.071 493.693 258.962 494.965 262.923C496.033 266.252 498.697 269.145 500.546 273.659C501.168 275.178 500.787 277.473 501.177 278.649C501.567 279.825 502.347 279.92 503.205 279.869C506.788 279.652 514.086 277.415 522.051 274.738C532.884 271.098 538.164 271.272 543.113 270.428C547.828 269.623 553.312 265.847 555.391 263.103C557.607 260.178 558.852 256.83 561.497 254.116C564.348 251.191 566.28 246.349 568.602 243.706C571.38 240.544 576.065 240.112 578.347 238.77C581.109 237.145 574.8 232.645 574.233 228.151C574.106 227.147 574.485 226.398 574.279 225.782C572.004 224.124 569.667 223.552 568.306 222.69C567.647 222.211 567.051 221.649 566.081 218.859" stroke="#FB2222" stroke-width="112" stroke-linecap="round"/>
<path d="M308.667 1.46673C202.4 12.2667 108.533 70.5334 51.7334 160.933C-0.933309 244.533 -14.1333 350.133 16.2667 445.067C44.2667 532.933 106.8 605.6 189.467 646.533C290.8 696.933 407.733 694.4 506.667 639.867C534 624.8 557.067 607.467 580.533 584.267C609.6 555.467 629.333 528.133 647.467 491.333C664.4 457.067 674.533 423.6 680.267 383.333C682.533 367.6 682.533 315.067 680.267 299.333C674.533 259.067 664.4 225.6 647.467 191.333C629.333 154.533 609.6 127.2 580.533 98.4001C528.133 46.5334 464.4 14.9334 389.333 3.3334C372.667 0.800065 325.733 -0.399935 308.667 1.46673ZM362.267 29.3334C437.333 34.5334 504.533 64.4001 558.267 116.533C607.2 163.733 638.533 223.067 649.867 289.333C650.933 295.6 651.467 301.067 650.933 301.467C649.6 302.667 611.2 308.667 580 312.533C543.6 317.2 498 321.333 480.267 321.733L465.2 322L460.8 310.533C446.533 272.533 416.4 244.667 376.4 232.4C365.6 229.067 362.933 228.8 341.333 228.8C319.733 228.8 317.067 229.067 306.267 232.4C266.267 244.667 236.133 272.667 221.867 310.533C219.067 318 216.8 322.133 215.2 322.533C209.467 323.6 140.267 317.467 96.2667 311.733L73.2 308.8L74 302.133C79.4667 260 98.9334 214 126.8 177.067C137.467 162.933 162.933 137.467 177.067 126.8C220.8 93.7334 269.467 75.7334 325.2 71.8667C348.133 70.2667 351.067 69.2001 354.133 61.7334C356.8 55.4667 354.667 48.8001 348.8 45.2001C344 42.2667 336.133 42.0001 314 44.0001C246.4 50.2667 183.333 79.2001 134.133 126.667C108 151.867 89.3334 177.467 73.3334 210C60 237.2 51.0667 264.933 46.5334 293.733L44.9334 304.133L38.8 303.2C35.4667 302.8 32.2667 302 31.7334 301.467C30.5334 300.4 34.1334 279.733 38.8 261.733C62.6667 168.4 133.067 88.4001 223.6 51.4667C252.133 39.7334 287.867 31.4667 318 29.3334C338.933 28.0001 342.667 28.0001 362.267 29.3334ZM361.067 258.133C397.733 265.733 427.867 294.133 437.467 330.267C441.467 345.067 441.467 366.267 437.467 380.667C429.333 409.867 411.2 431.733 384.667 444.667C370 451.733 357.333 454.667 341.333 454.667C325.333 454.667 312.667 451.733 298 444.667C271.333 431.733 253.333 410 245.2 380.667C241.2 366.267 241.2 345.067 245.2 330.267C254.667 294.667 284.8 265.867 320.8 258.267C333.067 255.6 348.533 255.467 361.067 258.133ZM38.2667 331.867C67.8667 337.6 132.8 345.467 176 348.667C216.8 351.733 213.333 350.8 213.333 358.933V365.6L199.733 364.667C149.867 361.467 80.9334 353.333 39.7334 345.867L28 343.733V337.2C28 329.867 27.8667 330 38.2667 331.867ZM654.667 337.2C654.667 344.933 657.6 343.6 626.667 348.667C587.6 354.933 524.8 362 483.067 364.8L469.333 365.733V358.933C469.333 350.8 467.2 351.6 499.333 349.333C540.8 346.4 615.867 337.467 642.667 332.133C654.533 329.733 654.667 329.867 654.667 337.2ZM58.6667 377.867C86.4 382.133 128.8 387.333 157.333 389.867C178.133 391.867 214.667 394.667 218.4 394.667C219.2 394.667 220 395.467 220 396.4C220 397.2 222.933 404 226.533 411.333C243.467 445.467 273.467 469.867 310 479.467C321.2 482.4 326.267 482.933 341.333 482.933C356.4 482.933 361.467 482.4 372.667 479.467C409.2 469.867 439.2 445.467 456.133 411.333C459.733 404 462.667 397.333 462.667 396.533C462.667 395.467 466.8 394.667 473.733 394.133C479.733 393.6 492.533 392.667 502 391.867C536.133 389.2 599.733 382.267 605.733 380.533C608.933 379.6 608.667 384 604.8 401.6C596.4 438.133 579.333 474.4 555.867 505.6C545.2 519.733 519.733 545.2 505.6 555.867C462 588.8 413.2 606.933 358 610.8C334.4 612.4 331.6 613.333 328.533 620.933C325.867 627.2 328 633.867 333.867 637.467C338.667 640.4 346.533 640.667 369.333 638.533C474.4 628.8 566.667 563.6 612.267 467.067C623.733 442.8 634 408 636.8 383.733C637.733 375.6 637.733 375.6 647.067 374C651.867 373.2 652 373.333 652 377.2C652 384.667 645.467 416.667 640.8 432.133C607.067 543.2 512.933 627.6 399.467 648.667C353.333 657.2 308.667 655.6 262.133 643.867C159.067 618 73.2 535.467 41.8667 432.133C37.2 416.933 30.6667 384.533 30.6667 377.067C30.6667 373.6 31.0667 373.2 33.7334 373.733C35.3334 374.133 46.5334 376 58.6667 377.867Z" fill="black"/>
<path d="M331.2 285.333C302 289.733 277.867 312.4 271.867 341.067C269.733 351.467 270.933 369.6 274.4 379.333C285.067 408.533 314.8 428.267 345.333 426.267C381.733 423.867 409.733 395.867 411.733 360C412.4 346 410.533 336.533 404.8 324.533C391.6 297.067 360.933 280.8 331.2 285.333ZM359.733 317.2C368.4 321.6 375.467 328.8 379.6 337.067C382.8 343.467 383.333 346.267 383.333 355.333C383.2 369.333 379.733 377.6 369.867 386.533C353.2 401.733 329.467 401.733 312.8 386.533C292.267 367.867 294.667 335.867 317.867 320.267C326.667 314.4 330.8 313.333 343.333 313.867C351.2 314.133 355.467 314.933 359.733 317.2Z" fill="black"/>
</g>
<defs>
<clipPath id="clip0_22_29">
<rect width="682.667" height="682.667" fill="white"/>
</clipPath>
</defs>
</svg>
