<svg width="252" height="252" viewBox="0 0 252 252" fill="none" xmlns="http://www.w3.org/2000/svg">
<path d="M251.9 251.9H55.1C55.1 251.9 0 251.9 0 196.8V0H196.8C196.8 0 251.9 0 251.9 55.1V251.9Z" fill="#E2183D"/>
<path d="M114.6 216.5H102.2V152.9H114.6V216.5Z" fill="white"/>
<path d="M146.2 216.5H125.9V129.3H146.2V216.5Z" fill="white"/>
<path d="M91.0999 68.5C91.0999 68.5 111.6 48.5 146.1 55.1C146.1 55.1 161.3 57.5 172.9 67.8C172.9 67.8 174.6 69.4 176 68.1C176 68.1 177.7 66.8 175.8 64.8C175.8 64.8 165.8 50.9 146 44.8C146 44.8 118.9 35.1 91 48.2C91 48.2 73.7999 55.3 64.2999 74.7C64.2999 74.7 50.6999 79.1 40.5999 84.8C40.5999 84.8 37.6 86 38.7 88.3C38.7 88.3 39.6999 90 42.2999 88.7C42.2999 88.7 51.6999 85.4 60.8999 83.4C60.8999 83.4 53.6 102.4 61.2 126C64.6 136.5 70.7999 147.2 80.2999 155.8C80.2999 155.8 81.8 157.4 83.5 156.3C83.5 156.3 84.9999 155.2 83.8999 153.5C83.8999 153.5 76.2999 142.1 73.3999 125.9C70.9999 112.7 72.0999 94.4 81.2999 80C81.2999 80 116.2 75.1 146 86.3C146 86.3 196.6 102.8 183.8 133.4C183.8 133.4 180.1 144 166.1 153.6C166.1 153.6 163.8 155 165 156.9C165 156.9 166.1 158.4 168.4 157.5C168.4 157.5 189.8 150.5 199 133.4C199 133.4 217.7 104.8 173.6 81.4C173.6 81.4 161.5 74.9 145.9 71.4C146 71.4 117.9 64.5 91.0999 68.5Z" fill="white"/>
</svg>
