<svg width="64" height="64" viewBox="0 0 64 64" fill="none" xmlns="http://www.w3.org/2000/svg">
<g clip-path="url(#clip0_26_53)">
<path d="M54.8571 0H9.14286C4.0934 0 0 4.0934 0 9.14286V54.8571C0 59.9066 4.0934 64 9.14286 64H54.8571C59.9066 64 64 59.9066 64 54.8571V9.14286C64 4.0934 59.9066 0 54.8571 0Z" fill="#F3F4F6"/>
<path d="M20 27C22.7614 27 25 24.7614 25 22C25 19.2386 22.7614 17 20 17C17.2386 17 15 19.2386 15 22C15 24.7614 17.2386 27 20 27Z" fill="#D1D5DB"/>
<path d="M11 48L25 34.2857L34.3333 43.4286L43.6667 32L53 48H11Z" fill="#D1D5DB"/>
</g>
<defs>
<clipPath id="clip0_26_53">
<rect width="64" height="64" fill="white"/>
</clipPath>
</defs>
</svg>
