<svg width="683" height="683" viewBox="0 0 683 683" fill="none" xmlns="http://www.w3.org/2000/svg">
<g clip-path="url(#clip0_28_38)">
<path d="M682 0H1V683H682V0Z" fill="#82B6FA"/>
<path d="M144.206 311.917C145.495 312.812 152.501 327.132 156.332 336.993C157.732 340.598 158.96 345.223 159.749 349.372C160.694 354.347 162.004 357.367 163.914 364.514C165.253 369.525 167.44 378.945 168.693 388.213C172.445 415.96 169.587 418.53 169.69 419.271C169.922 420.946 171.864 415.79 174.733 407.691C177.274 400.518 181.872 387.077 184.441 379.796C187.775 370.348 189.204 368.024 191.37 363.675C192.864 360.672 192.797 357.319 193.729 354.578C195.256 350.089 195.92 345.553 196.838 339.241C197.76 332.906 199.507 327.649 200.655 323.74C202.542 317.317 204.382 314.382 205.393 311.81C206.445 309.137 210.063 302.311 213.164 296.484C214.393 294.174 215.276 292.014 216.265 290.692C216.719 290.085 217.404 289.892 218.087 290.623C222.119 294.933 222.157 301.44 226.636 318.487C230.779 334.258 233.581 343.181 234.819 348.27C236.072 353.417 236.684 358.941 237.324 362.206C238.334 367.36 240.082 374.271 241.371 378.451C242.538 382.233 244.215 386.93 245.176 389.959C246.421 393.883 247.144 399.484 248.746 404.515C250.71 410.683 252.915 413.315 255.228 417.537C257.347 421.407 259.661 423.507 262.676 425.409C263.386 425.857 264.142 425.773 264.794 425.508C265.446 425.242 266.056 424.62 266.097 423.21C266.203 419.587 264.848 415.647 264.527 409.536C264.298 405.158 264.298 398.171 264.863 387.729C265.427 377.286 266.649 363.596 267.557 355.763C269.049 342.891 271.062 337.699 273.166 329.27C274.207 325.102 277.015 313.806 278.689 305.909C279.537 301.911 280.012 296.26 281.354 286.046C282.343 278.511 283.736 273.643 284.141 272.141C284.576 270.525 284.92 280.426 284.866 297.132C284.843 304.038 284.612 306.253 284.337 310.45C283.845 317.954 282.577 329.35 281.93 340.11C281.622 345.242 281.281 347.275 280.487 354.153C278.523 371.167 276.47 383.169 276.334 384.817C275.983 389.075 274.92 394.149 274.182 399.015C273.664 402.43 273.172 405.382 272.943 408.452C272.716 411.795 272.167 414.36 271.86 416.416C271.734 417.748 271.667 419.664 271.599 421.639" stroke="#F5F6F6" stroke-width="50" stroke-linecap="round"/>
<path d="M381.759 202.011C383.142 202.43 387.53 203.524 398.842 205.542C404.384 206.53 409.538 206.923 414.38 207.378C424.244 208.305 428.299 207.196 442.757 205.677C458.111 204.065 468.513 201.314 470.919 201.221C476.296 201.015 482.232 200.655 492.349 200.406C501.817 200.174 520.089 200.065 530.185 199.874C544.172 199.609 554.901 198.11 561.916 197.431C562.724 197.353 563.388 197.242 563.942 197.475C566.55 198.57 566.898 211.549 567.601 221.386C567.89 225.434 568.103 229.678 568.56 236.932C570.018 260.051 569.206 264.107 568.977 267.923C568.776 271.28 569.78 277.332 570.697 282.728C572.12 291.099 571.891 297.028 571.893 310.071C571.894 315.006 571.253 317.409 570.654 324.885C570.106 331.716 569.588 344.754 569.116 352.335C568.645 359.917 568.369 361.657 567.766 373.017C567.162 384.376 566.239 405.304 565.62 416.643C564.94 429.113 564.231 436.268 563.987 446.686C563.735 457.456 564.85 465.839 565.342 472.418C565.435 473.658 565.903 474.97 565.657 475.835C564.784 478.911 554.332 479.528 541.894 480.455C537.43 480.788 532.533 481.005 527.538 480.736C523.694 480.528 521.058 479.735 505.032 479.505C494.167 479.349 487.295 481.341 472.806 482.16C459.563 482.909 434.317 483.424 418.931 483.76C398.779 484.2 393.307 483.271 392.423 481.942C389.562 477.643 392.089 469.316 392.458 457.48C392.65 451.308 393.107 444.169 393.66 436.968C394.174 430.272 395.314 422.748 395.869 417.736C396.228 414.482 397.058 409.453 397.881 399.153C399.294 381.454 398.713 369.553 398.575 367.85C398.009 360.851 396.871 350.354 395.908 343.985C394.916 337.414 394.754 321.515 395.069 312.214C395.447 301.077 396.491 291.439 396.948 284.672C397.425 277.62 397.875 272.516 397.609 270.53C397.488 269.624 397.177 268.957 404.733 268.715C412.288 268.473 427.665 268.684 437.058 268.6C449.406 268.49 453.854 267.734 456.395 267.79C462.809 267.931 473.946 268.657 484.681 269.546C491.819 270.138 502.461 269.883 509.023 269.76C521.763 269.521 534.712 268.079 541.726 267.77C545.137 267.619 548.746 267.317 552.691 267.91C553.715 268.064 554.562 268.773 555.388 269.677C557.193 271.652 558.29 283.37 558.934 301.974C559.443 316.668 557.501 324.746 556.792 329.522C554.823 342.781 557.395 344.925 557.758 346.475C558.149 348.152 549.041 347.489 533.771 344.92C522.838 343.081 514.145 342.857 506.86 341.463C496.969 339.57 491.094 338.47 483.618 337.125C477.712 336.063 467.402 334.919 457.682 334.292C429.142 332.451 426.422 334.247 425.112 335.198C423.025 336.712 424.153 346.213 424.107 357.143C424.085 362.316 424.415 370.677 424.001 383.826C423.502 399.648 421.892 405.993 421.415 412.246C421.314 413.567 421.146 414.824 421.385 415.65C421.624 416.477 422.288 416.836 423.072 417.058C424.704 417.52 427.197 417.249 438.568 416.676C448.392 416.18 466.464 415.684 477.487 415.14C488.51 414.597 491.94 414.127 499.576 413.725C507.212 413.323 518.95 413.003 526.619 413.02C534.287 413.037 537.531 413.402 540.615 413.589C543.698 413.777 546.524 413.777 550.673 412.755" stroke="#F5F6F6" stroke-width="50" stroke-linecap="round"/>
<path d="M214.998 107.105C111.57 126.707 74.0974 134.072 72.1479 135.588C70.6317 136.671 68.4657 138.945 67.2743 140.57L65 143.494V340.495V537.496L67.2743 540.421C68.4657 542.045 70.6317 544.319 72.1479 545.402C75.8302 548.218 357.199 600.961 362.722 599.987C367.487 599.12 372.902 594.572 374.852 589.915C376.043 587.315 376.368 579.626 376.368 558.724V531.107L492.143 530.89C607.268 530.565 608.026 530.565 610.95 528.291C612.574 527.099 614.957 524.717 616.148 523.092L618.423 520.168V340.604V161.039L615.282 157.032C609.542 149.451 617.015 149.884 490.735 149.884H376.476L376.151 120.751C375.826 93.242 375.718 91.4009 373.552 88.585C369.87 83.6031 366.079 81.3288 360.448 81.0039C356.982 80.7873 308.354 89.5597 214.998 107.105ZM584.308 340.495V496.45H480.338H376.368V479.122V461.793L457.486 461.577C537.521 461.252 538.713 461.252 541.637 458.978C547.268 454.754 549.11 451.288 549.11 444.573C549.11 439.375 548.568 437.642 545.969 434.285C540.337 426.812 544.236 427.137 455.97 427.137H376.368V409.808V392.48L457.486 392.264C537.521 391.939 538.713 391.939 541.637 389.664C547.268 385.441 549.11 381.975 549.11 375.26C549.11 370.062 548.568 368.329 545.969 364.971C540.337 357.499 544.236 357.824 455.97 357.824H376.368V340.495V323.167L457.486 322.95C537.521 322.625 538.713 322.625 541.637 320.351C547.268 316.127 549.11 312.662 549.11 305.947C549.11 300.748 548.568 299.016 545.969 295.658C540.337 288.185 544.236 288.51 455.97 288.51H376.368V271.182V253.854L457.486 253.637C537.521 253.312 538.713 253.312 541.637 251.038C547.268 246.814 549.11 243.348 549.11 236.634C549.11 231.435 548.568 229.702 545.969 226.345C540.337 218.872 544.236 219.197 455.97 219.197H376.368V201.869V184.541H480.338H584.308V340.495ZM296.658 255.37C300.882 257.103 305.647 262.951 306.622 267.5C307.163 270.207 290.809 423.346 289.077 431.902C288.102 436.234 280.954 443.057 276.297 444.032C270.557 445.007 265.25 443.707 261.135 440.133C257.886 437.317 255.395 431.252 239.258 388.148C229.186 361.398 220.738 339.412 220.413 339.412C220.088 339.412 211.641 361.398 201.569 388.148C185.432 431.252 182.941 437.317 179.692 440.133C170.919 447.822 155.757 444.032 152.291 433.31C150.342 427.137 133.555 306.488 134.205 302.806C134.963 297.824 139.728 291.868 144.494 289.918C152.508 286.561 163.555 290.893 166.804 298.691C167.562 300.532 169.728 313.203 171.569 326.958C173.519 340.604 175.36 352.733 175.793 353.925C176.443 355.333 180.775 344.827 190.522 318.727C198.211 298.258 205.359 280.171 206.442 278.655C208.717 275.406 215.648 272.265 220.413 272.265C225.179 272.265 232.11 275.406 234.384 278.655C235.467 280.171 242.399 297.499 249.763 317.21C259.294 342.553 263.301 352.084 263.517 349.918C263.734 348.185 266.008 328.365 268.499 305.73C273.589 260.352 273.373 261.002 281.712 256.345C286.586 253.529 291.459 253.204 296.658 255.37Z" fill="#1C65BF"/>
</g>
<defs>
<clipPath id="clip0_28_38">
<rect width="682.667" height="682.667" fill="white"/>
</clipPath>
</defs>
</svg>
