<svg version="1.0" xmlns="http://www.w3.org/2000/svg"
 width="1080.000000pt" height="1080.000000pt" viewBox="0 0 1080.000000 1080.000000"
 preserveAspectRatio="xMidYMid meet">
    <rect width="100%" height="100%" fill="#FFD700"/>
    <g transform="translate(0.000000,1080.000000) scale(0.100000,-0.100000)" fill="#000000" stroke="none">
        <path d="M2055 10778 c4 -13 15 -36 25 -53 10 -16 43 -78 74 -137 137 -262
        170 -327 201 -383 18 -33 60 -112 93 -175 32 -63 90 -173 127 -245 37 -71 94
        -178 126 -237 33 -59 59 -109 59 -111 0 -2 41 -77 90 -166 50 -89 90 -163 90
        -166 0 -2 133 -243 295 -535 162 -292 295 -533 295 -535 0 -2 -28 -23 -62 -46
        -108 -73 -285 -215 -374 -302 -29 -27 -57 -48 -63 -46 -30 10 -1875 1846
        -2669 2654 l-362 370 2 -1120 3 -1119 245 -138 c135 -76 252 -141 260 -145 8
        -3 26 -14 40 -23 14 -9 50 -30 80 -47 46 -25 238 -134 388 -219 313 -178 403
        -229 432 -246 19 -12 53 -30 75 -41 22 -11 51 -28 65 -38 14 -9 102 -59 195
        -111 94 -53 186 -104 205 -116 19 -11 80 -46 135 -77 55 -32 166 -96 247 -142
        l146 -85 -73 -142 c-100 -191 -220 -492 -240 -599 -4 -20 -11 -39 -15 -42 -4
        -3 -48 4 -96 14 -49 11 -120 27 -159 35 -38 9 -106 24 -150 35 -229 56 -299
        73 -395 95 -58 13 -121 27 -140 31 -19 3 -55 12 -80 20 -25 7 -108 28 -185 45
        -77 18 -165 39 -195 47 -30 9 -91 24 -135 34 -119 27 -276 64 -400 94 -187 45
        -230 54 -242 55 -10 0 -13 -267 -13 -1304 l0 -1304 83 20 c94 22 226 55 377
        93 58 14 141 34 185 44 94 22 228 55 305 76 30 8 103 26 162 40 205 48 313 74
        418 99 58 15 134 33 170 41 36 8 112 26 170 40 220 55 310 72 319 61 5 -6 14
        -29 21 -51 14 -48 56 -158 76 -202 8 -17 14 -34 14 -38 0 -4 25 -59 55 -122
        30 -64 55 -118 55 -122 0 -3 -68 -49 -150 -101 -82 -52 -169 -107 -192 -122
        -24 -15 -59 -37 -78 -48 -19 -11 -87 -54 -150 -95 -63 -41 -131 -84 -150 -95
        -19 -11 -62 -37 -95 -58 -59 -38 -95 -61 -345 -217 -69 -43 -141 -88 -160
        -100 -19 -12 -179 -111 -355 -220 -176 -109 -353 -219 -393 -244 -40 -25 -92
        -58 -115 -72 -23 -14 -84 -52 -134 -84 l-93 -59 0 -48 c0 -26 2 -48 5 -48 3 0
        200 88 438 196 237 108 441 200 452 204 12 4 69 31 129 59 59 28 109 51 111
        51 2 0 50 22 107 49 183 86 238 111 243 111 2 0 50 22 107 49 110 52 216 102
        438 204 234 107 329 152 478 224 87 41 140 62 153 58 10 -4 19 -10 19 -14 0
        -5 27 -44 60 -87 34 -44 71 -92 83 -109 31 -42 99 -118 189 -210 l77 -80
        -1544 -1550 -1544 -1550 -1 -42 0 -43 1149 0 c907 0 1151 3 1158 12 6 7 36 63
        68 123 63 121 136 256 304 563 61 111 111 205 111 207 0 3 54 102 120 220 66
        118 120 218 120 220 0 4 148 279 170 315 5 8 28 51 51 95 23 44 45 85 49 90 4
        6 29 51 55 100 26 50 61 115 78 145 17 30 38 69 46 85 66 127 288 518 297 522
        6 2 53 -16 105 -41 113 -53 235 -106 244 -106 4 0 21 -6 38 -14 81 -35 324
        -109 461 -140 23 -6 27 -11 22 -29 -7 -21 -21 -92 -81 -397 -15 -74 -38 -189
        -51 -255 -48 -242 -76 -383 -99 -500 -38 -195 -73 -371 -101 -510 -14 -71 -34
        -170 -43 -220 -41 -205 -55 -275 -76 -377 l-23 -108 1265 0 1265 0 -6 23 c-4
        12 -18 69 -31 127 -13 58 -36 155 -50 215 -48 201 -73 309 -99 420 -14 61 -37
        157 -51 215 -13 58 -34 147 -45 198 -11 52 -22 97 -25 101 -2 5 -16 62 -31
        127 -27 123 -44 198 -89 394 -85 370 -126 561 -120 569 2 5 22 11 42 14 63 11
        303 88 453 146 154 60 185 73 198 83 7 6 14 9 16 7 2 -2 52 -71 112 -154 59
        -82 117 -162 129 -176 11 -14 27 -36 35 -49 8 -12 40 -56 70 -96 30 -41 64
        -86 75 -101 11 -16 77 -107 147 -203 70 -96 142 -195 161 -220 19 -25 117
        -160 217 -300 101 -140 197 -274 214 -297 17 -23 60 -83 96 -134 36 -50 93
        -130 128 -177 35 -47 79 -108 98 -136 19 -28 63 -90 97 -138 34 -47 122 -170
        195 -272 l134 -186 73 0 73 0 -45 77 c-25 43 -60 103 -79 134 -18 30 -72 125
        -120 210 -48 85 -95 168 -104 184 -9 17 -54 95 -100 175 -45 80 -106 186 -135
        235 -29 50 -102 178 -162 285 -60 107 -119 211 -130 230 -11 19 -57 100 -103
        180 -45 80 -91 159 -100 175 -10 17 -51 89 -92 160 -41 72 -110 191 -153 265
        -43 74 -86 149 -95 165 -9 17 -55 93 -100 170 -131 221 -129 216 -106 229 42
        24 256 188 340 260 49 42 95 76 102 74 7 -2 136 -122 286 -268 329 -319 2304
        -2292 2581 -2578 l197 -204 0 1135 0 1134 -177 105 c-98 58 -203 120 -233 138
        -30 17 -84 49 -120 71 -36 22 -78 46 -95 55 -16 8 -50 28 -75 44 -25 16 -52
        33 -60 37 -21 9 -429 251 -460 273 -14 9 -59 36 -100 59 -41 23 -95 55 -120
        71 -25 16 -81 50 -125 75 -152 87 -889 541 -918 566 -5 4 14 49 41 100 28 52
        69 137 92 189 23 52 50 113 60 135 10 22 37 96 60 165 23 69 46 129 50 134 5
        4 84 -11 177 -34 92 -23 213 -52 268 -65 80 -19 495 -122 845 -209 30 -8 87
        -21 125 -31 109 -26 211 -51 325 -80 58 -15 148 -37 200 -50 52 -13 122 -31
        155 -39 33 -9 66 -16 73 -16 9 0 12 268 12 1305 l0 1305 -22 -5 c-13 -3 -52
        -12 -88 -21 -36 -8 -110 -26 -165 -39 -55 -12 -149 -35 -210 -50 -60 -15 -148
        -36 -195 -46 -47 -10 -96 -23 -110 -28 -14 -6 -41 -13 -60 -16 -44 -8 -267
        -61 -340 -80 -55 -15 -185 -45 -440 -104 -74 -17 -148 -36 -165 -41 -16 -5
        -70 -18 -120 -29 -49 -11 -130 -30 -179 -41 -49 -11 -91 -18 -94 -15 -3 2 -15
        42 -28 87 -33 119 -75 230 -145 384 -34 74 -60 136 -58 138 2 2 29 18 59 35
        30 18 74 44 97 59 23 15 75 47 115 72 40 25 114 72 165 105 51 33 135 87 188
        120 53 33 103 66 110 73 7 6 17 12 20 12 4 0 25 13 48 28 23 16 67 45 97 64
        70 45 355 227 460 293 120 76 497 315 555 352 39 25 90 58 115 74 25 16 122
        78 215 138 l170 108 3 57 c2 31 0 56 -3 56 -4 0 -90 -42 -193 -94 -179 -90
        -605 -300 -1002 -493 -102 -50 -279 -137 -395 -193 -394 -192 -510 -248 -650
        -315 -77 -37 -195 -94 -262 -126 -67 -33 -126 -59 -131 -59 -5 0 -49 48 -96
        108 -48 59 -156 176 -239 260 l-152 153 105 101 c58 55 317 308 575 562 654
        641 807 789 1280 1241 110 105 310 296 445 425 229 219 404 384 626 590 87 80
        92 87 93 128 l1 42 -1100 0 c-790 0 -1100 -3 -1100 -11 0 -6 -32 -63 -71 -127
        -40 -65 -80 -130 -89 -147 -10 -16 -38 -64 -62 -105 -24 -41 -53 -90 -64 -108
        -10 -19 -63 -109 -118 -200 -54 -92 -143 -243 -198 -337 -97 -164 -112 -189
        -171 -282 -15 -24 -27 -45 -27 -48 0 -3 -12 -24 -27 -48 -14 -23 -36 -58 -48
        -77 -13 -19 -89 -147 -170 -285 -81 -137 -158 -266 -171 -285 -12 -19 -37 -62
        -56 -95 -18 -33 -50 -87 -71 -120 -39 -63 -157 -258 -187 -310 -9 -16 -24 -31
        -32 -33 -9 -2 -65 21 -125 51 -59 30 -142 69 -183 86 -41 18 -88 38 -105 46
        -37 16 -319 108 -398 130 -32 9 -60 21 -63 28 -2 7 5 58 17 112 11 55 31 154
        45 220 13 66 35 174 49 240 55 258 65 304 90 420 14 66 37 172 51 235 13 63
        35 165 49 225 13 61 35 164 49 230 13 66 27 127 30 135 3 8 15 62 26 120 31
        167 59 293 70 318 l10 22 -1250 0 -1249 0 9 -27 c10 -33 59 -253 131 -588 11
        -55 34 -156 49 -225 35 -157 65 -293 85 -390 8 -41 27 -129 41 -195 26 -121
        52 -240 98 -460 14 -66 37 -174 52 -240 14 -66 26 -128 27 -138 2 -16 -25 -28
        -153 -72 -252 -85 -348 -124 -472 -188 l-79 -41 -24 30 c-13 16 -50 66 -82
        112 -32 46 -83 116 -113 157 -61 83 -84 116 -300 420 -81 116 -157 221 -167
        235 -11 14 -46 63 -78 110 -32 47 -78 114 -103 150 -52 74 -117 170 -283 415
        -130 191 -259 381 -341 500 -30 44 -89 132 -131 195 -42 63 -96 143 -119 177
        l-43 63 -53 0 c-51 0 -53 -1 -47 -22z m3634 -3908 c158 -27 400 -127 552 -229
        256 -171 451 -418 549 -696 54 -149 72 -248 77 -420 8 -263 -32 -465 -136
        -685 -52 -110 -108 -195 -207 -314 -136 -162 -394 -333 -624 -412 -179 -62
        -255 -75 -449 -81 -187 -6 -199 -4 -406 39 -117 24 -326 109 -415 168 -14 9
        -45 30 -70 46 -139 89 -292 240 -385 380 -47 71 -155 281 -155 302 0 4 -11 43
        -25 86 -29 91 -65 321 -65 415 0 35 4 92 9 125 6 34 15 97 21 141 42 283 229
        598 473 798 145 117 163 130 268 185 182 97 353 149 539 166 77 7 382 -3 449
        -14z"/>
        <path d="M5305 6370 c-191 -23 -413 -136 -553 -284 -128 -135 -211 -297 -242
        -470 -13 -77 -13 -246 1 -322 71 -398 395 -693 805 -734 240 -24 462 35 642
        168 95 71 137 112 197 192 258 348 223 845 -84 1163 -163 169 -347 261 -575
        287 -89 11 -102 11 -191 0z m553 -241 c70 -52 97 -113 89 -200 -6 -71 -29
        -113 -84 -155 -100 -77 -245 -42 -302 72 -46 91 -14 229 65 281 48 31 113 42
        167 27 26 -7 56 -18 65 -25z"/>
    </g>
</svg>
