<svg width="96" height="96" viewBox="0 0 96 96" xmlns="http://www.w3.org/2000/svg">
  <rect width="96" height="96" fill="hsl(52, 96%, 53%)"/>
  <g fill="#FFFFFF" opacity="0.9">
    <path d="M48 48 L96 20 L96 0 L48 48 Z"/>
    <path d="M48 48 L96 48 L96 20 Z"/>
    <path d="M48 48 L96 96 L96 72 Z"/>
    <path d="M48 48 L48 96 L72 96 Z"/>
    <path d="M48 48 L0 96 L24 96 Z"/>
    <path d="M48 48 L0 48 L0 72 Z"/>
    <path d="M48 48 L0 0 L0 24 Z"/>
    <path d="M48 48 L48 0 L24 0 Z"/>
    <path d="M48 48 L96 0 L72 0 Z"/>
  </g>
  <circle cx="48" cy="48" r="14" fill="hsl(52, 96%, 53%)"/>
  <circle cx="48" cy="48" r="9" fill="#FFFFFF"/>
  <circle cx="50" cy="48" r="4" fill="hsl(52, 96%, 53%)"/>
  <circle cx="51.5" cy="46.5" r="1.2" fill="#FFFFFF"/>
</svg>